<svg id="Layer_1" xmlns="http://www.w3.org/2000/svg" viewBox="0 0 325.4 113.9"><style>.st0{fill:#a50829}.st1{fill:#ba8c3c}.st2{fill:#a40728}.st3{fill:#ba8b3c}.st4{fill:#a5092a}.st5{fill:#bb8c3d}.st6{fill:#a60b2b}</style><path class="st0" d="M215.6 88.1c.7-.2 1.5-.6 2.2-.6 3.4-.1 6.8-.1 10.2 0 .8 0 1.1-.2 1.4-.9 11.7-28.1 23.4-56.3 35.1-84.4.3-.8 1-1.5 1.5-2.1.1-.1.8-.1 1 .1 3.2 3.1 6.4 6.3 9.5 9.5.2.2.2.9 0 1.3-3.5 8.7-7.1 17.3-10.7 26-8.3 20.2-16.6 40.3-24.9 60.5-.4 1-.9 1.4-2 1.3-4-.1-8-.1-12 0-.8 0-1.4-.3-2-.8-3.1-3.2-6.3-6.3-9.4-9.4.1-.2.1-.3.1-.5z"/><path class="st1" d="M206.4 12.8c3.5 3.5 7.1 6.9 10.5 10.5 1.9 2 2.4 4.8 2.4 7.5.1 8.8 0 17.6.1 26.4V77c0 5.4-2.1 9.9-6.9 12.7-2.3 1.3-4.7 1.9-7.3 1.9H167c-.5 0-1.1 0-1.3-.3l-9.9-9.9c.4-.9 1.1-1.2 2-1.2 12.4 0 24.7.1 37.1 0 8.4-.1 13.1-4.9 13.1-13.2.1-15.2 0-30.5 0-45.7-.1-2.9-.7-5.7-1.6-8.5z"/><path class="st2" d="M122.2 103.4c1-.3 1.6-.8 2.3-.8 3.5-.1 6.9 0 10.5 0v-1.5V2.4c0-1 .2-1.7 1.2-2.2 3.3 3.3 6.6 6.6 9.8 9.9.3.3.3.9.3 1.4V113.9h-13.1c-.2 0-.6-.1-.7-.3-3.3-3.3-6.6-6.6-10.3-10.2z"/><path class="st1" d="M59.4 79.6c1.8.3 3.5.7 5.2.9.7.1 1.4.1 2.1.1 8.5 0 17 .1 25.6 0 4.6-.1 8.6-1.7 11-6 1.3-2.4 1.7-5 1.7-7.6v-9.8c0-.7.4-1.4.7-2.1h.5c.7.8 1.4 1.5 2.1 2.2 2.5 2.5 5 5 7.4 7.5.3.3.6.9.6 1.3 0 4.1.1 8.2 0 12.2-.2 8-6.2 13.7-14.2 13.7-7.8 0-15.7-.1-23.5 0-4.4.1-8.2-1.3-11.3-4.4-2.6-2.6-5.2-5.3-7.9-8z"/><path class="st0" d="M274.4 67.4c1-.6 1.8-1.2 2.7-1.6 11.9-5.4 23.9-10.7 35.8-16 .9-.4 1.2-.8 1.2-1.8-.1-2.6-.1-5.1 0-7.7 0-.8.4-1.5.6-2.2.2-.1.4-.1.6-.2.5.6.9 1.2 1.4 1.8 2.7 2.7 5.4 5.4 8 8.1.4.4.7 1.1.7 1.6.1 3.2 0 6.3 0 9.5 0 .7-.1 1.1-.8 1.4-13 5.8-25.9 11.6-38.9 17.3-.3.2-1 .1-1.2-.1-3.3-3.3-6.6-6.5-10.1-10.1z"/><path class="st3" d="M180.8 68.3h-11.3V20h21.9c2.6 0 3.6 1.1 3.7 3.6v7.7h-14.3v37z"/><path class="st1" d="M92.2 31H82.1c-2.5 0-3.6 1.2-3.6 3.6v34.1c-3 0-6 .1-8.9 0-1.3 0-2.2-1.1-2.4-2.5-.1-.4-.1-.9-.1-1.3V23.5c0-.9.1-2 .6-2.6.5-.6 1.6-1.2 2.4-1.2 6.3-.1 12.6-.1 19 0 1.8 0 3 1 3 2.7.2 2.8.1 5.6.1 8.6z"/><path class="st0" d="M40.4 20c3.3 3.3 6.6 6.6 9.8 9.9.3.3.4.8.4 1.2v11.3c0 .6-.2.9-.7 1.2-6.2 2.5-12.4 5.1-18.6 7.6-.4.2-1.1.1-1.5-.1-5.3-2.1-10.6-4.3-15.9-6.5-.4-.2-.9-.6-.9-1 0-.3.5-.7.8-.9 8.1-3.3 16.2-6.5 24.3-9.7.9-.3 1.1-.7 1.1-1.6-.1-3.1 0-6.2 0-9.2 0-1 .3-1.7 1.2-2.2z"/><path class="st4" d="M.2 49.3C13.1 55 26 60.7 39.2 66.5v-1.6V57c0-.9.3-1.6 1.1-2.1 2.6 2.6 5.1 5.4 7.9 7.8 1.9 1.7 2.6 3.4 2.4 5.9-.2 3.1-.1 6.1-.1 9.3-.4-.1-.7-.2-.9-.3C36.8 71.8 23.9 66 11.1 60.3c-.6-.3-1.2-.7-1.6-1.1C6.3 56 3.1 52.9 0 49.7c.1-.1.2-.3.2-.4z"/><path class="st5" d="M103.7 12.6c3.4 3.4 6.9 6.7 10.2 10.2 1.8 1.9 2.3 4.4 2.4 6.9.1 4.5.1 8.9.1 13.4 0 .1-.1.2-.1.5h-13.8c-.4 0-1 0-1.2-.3-3.4-3.3-6.7-6.7-10.4-10.3 1-.3 1.6-.7 2.3-.7 3.5-.1 7 0 10.4 0h1.2c.1-.2.2-.3.2-.3-.1-5.1-.2-10.3-.4-15.4-.1-1.3-.7-2.5-1-3.8 0-.2.1-.2.1-.2z"/><path class="st6" d="M275 32.6c.7.2 1.4.3 2 .5 7.9 3.2 15.9 6.5 23.8 9.7.4.2.7.5 1 .8-.3.3-.6.5-.9.8-3.2 2-6.4 1.8-10 .6-4-1.3-7.5-3-10.2-6.3-1.5-1.8-3.3-3.4-5-5-.3-.3-.5-.6-.8-.8 0-.1 0-.2.1-.3z"/><path class="st5" d="M103.6 12.7c0-.1-.1-.2-.1-.2.1 0 .1.1.2.1 0 0-.1 0-.1.1z"/><path class="st1" d="M206.3 12.9c0-.1-.1-.2-.1-.2.1 0 .2 0 .1.2.1-.1.1-.1 0 0z"/></svg>